# xmcd CD database file
#
# Track frame offsets:
#	150
#	12302
#	23617
#	33102
#	43240
#	54260
#	65812
#	80852
#	96958
#	105941
#	118154
#	130127
#	139603
#	149507
#	162072
#	177592
#	191781
#	203120
#	216769
#	230542
#	240933
#	252761
#
# Disc length: 3531 seconds
#
# Revision: 1
# Processed by: cddbd v1.4PL0 Copyright (c) Steve Scherf et al.
# Submitted via: CDex 1.50
#
DISCID=350dc916
DTITLE=Richard Zimmerman - Gems of Texas Ragtime
DYEAR=1997
DGENRE=Jazz
TTITLE0=The Texas Rag
TTITLE1=Eleventh Street Rag (1917)
TTITLE2=Eleventh Street Rag (1918)
TTITLE3=Kansas City Rag
TTITLE4=Rats!!!
TTITLE5=Sixth Street Rag
TTITLE6=Ragged Terry
TTITLE7=Tipperary Blues
TTITLE8=Nothing Doin'
TTITLE9=Water Lily's Dream
TTITLE10=That Gosh Darned Two Step Rag
TTITLE11=Colorado Blues
TTITLE12=Shamrock Rag
TTITLE13=Alamo Blues
TTITLE14=Petticoat Lane
TTITLE15=Graveyard Blues
TTITLE16=Twelfth Street Rag
TTITLE17=Ft. Worth Blues
TTITLE18=Niagara Rag
TTITLE19=Tenth Street Rag
TTITLE20=Rosary Blues
TTITLE21=The Rattler
EXTD=YEAR: 1997
EXTT0=
EXTT1=
EXTT2=
EXTT3=
EXTT4=
EXTT5=
EXTT6=
EXTT7=
EXTT8=
EXTT9=
EXTT10=
EXTT11=
EXTT12=
EXTT13=
EXTT14=
EXTT15=
EXTT16=
EXTT17=
EXTT18=
EXTT19=
EXTT20=
EXTT21=
PLAYORDER=
